<svg xmlns="http://www.w3.org/2000/svg" width="882.172" height="213.033" viewBox="0 0 882.172 213.033">
  <g id="Group_3" data-name="Group 3" transform="translate(-30.311 -293.749)">
    <g id="Group_1" data-name="Group 1" transform="translate(-230.31 130.69)">
      <path id="Path_1" data-name="Path 1" d="M456.913,192.951a96.833,96.833,0,0,1,51.661,82.462,3.308,3.308,0,0,0,.173.965c.25.733.528,1.509.819,2.253.371.95,1.726,3.394,3.315,6.141a3.4,3.4,0,0,0,6.352-1.552q.093-2.234.093-4.49a107.643,107.643,0,0,0-58.751-96.005,3.413,3.413,0,0,0-4.931,2.569c-.206,1.416-.386,2.875-.521,4.339A3.4,3.4,0,0,0,456.913,192.951Z" transform="translate(-45.671 -4.53)"/>
      <path id="Path_2" data-name="Path 2" d="M339.878,365.89s.234-10.679,13.515-35.692a27.24,27.24,0,0,0,0-23.359s-3.667-3.146-9.3,1.32-17.913,13.9-17.913,13.9a12.733,12.733,0,0,0-5.737,8.526s-1.353,1.389-6.408,3.025-11.547-2.853-11.547-2.853-1.623-1.075-1.716-8.325c0,0-.279-2.245-1.345-3.133,0,0-.271-3.383.285-4.169s7.475-9.91,7.475-9.91,6.21-9.69,7.31-15.233a60.206,60.206,0,0,0,1.2-9.034s1.036-6.15,3.811-8.911a61.446,61.446,0,0,1,5.772-5s6.7-6.419,7.623-8.248c0,0-4.024-5.9-2.781-16.259a50.04,50.04,0,0,0,7.777,5.339c3.152,1.5,16.592,6.613,16.592,6.613S386.353,266.7,403.855,294.7c0,0,7.568,10.777,20.192,16.167s13.843,9.8,13.843,9.8a6.32,6.32,0,0,0,.149.721,8.939,8.939,0,0,0,6.921,6.44,27.5,27.5,0,0,1,5.177,1.677c4.859,2.066,9.622-2.595,9.622-2.595a10.909,10.909,0,0,1,4.763-1.057c2.954-.048,7.99-7.377,7.99-7.377s6.438-10,1.4-24.176a59.717,59.717,0,0,1-7.114-12.267c-3.55-7.9-32.068-39.5-32.068-39.5s.305-11.61-8.195-20.285c0,0-8.6-12.553-17.405-24.6,0,0-4.149-9.185,3.339-34.6,0,0-24.075-.669-44.033,49.033,0,0,1.223-12.134,6.877-22.4,0,0-55.858,1.676-100.831,79.43C274.487,269.124,260.771,342.283,339.878,365.89Z" transform="translate(-3.043)"/>
      <path id="Path_3" data-name="Path 3" d="M336.835,367.03l0,0a96.741,96.741,0,0,1-65.525-91.688c0-53.29,42.987-96.643,95.825-96.643a95.517,95.517,0,0,1,10.911.625,2.013,2.013,0,0,0,1.745-.664c1.589-1.8,3.485-3.867,5.482-5.878a2.059,2.059,0,0,0-1.092-3.488,105.773,105.773,0,0,0-17.046-1.379c-58.734,0-106.516,48.191-106.516,107.427a107.542,107.542,0,0,0,72.421,101.782,2.04,2.04,0,0,0,2.683-1.671Z" transform="translate(0 -1.14)"/>
    </g>
    <text id="STUDLY" transform="translate(284.482 451.749)" font-size="146.492" font-family="Poppins-Bold, Poppins" font-weight="700" letter-spacing="0.1em"><tspan x="0" y="0">STUDLY</tspan></text>
  </g>
</svg>
