<?xml version="1.0" encoding="utf-8"?>
<!-- Generator: Adobe Illustrator 23.0.1, SVG Export Plug-In . SVG Version: 6.00 Build 0)  -->
<svg version="1.1" id="Layer_1" xmlns="http://www.w3.org/2000/svg" xmlns:xlink="http://www.w3.org/1999/xlink" x="0px" y="0px"
	 viewBox="0 0 801 801" style="enable-background:new 0 0 801 801;" xml:space="preserve">
<style type="text/css">
	.st0{fill:#c1a051;}
	.st1{fill:#c1a051;}
	.st3{font-size:146.4916px;}
	.st4{letter-spacing:14;}
</style>
<g>
	<g>
		<path class="st0" d="M457.47,196.21c38.93,20.44,65.94,60.91,67.52,107.77c0.01,0.43,0.09,0.85,0.23,1.26
			c0.33,0.96,0.69,1.97,1.07,2.94c0.49,1.24,2.26,4.44,4.33,8.03c2.23,3.86,8.11,2.44,8.3-2.03c0.08-1.95,0.12-3.9,0.12-5.87
			c0-54.79-31.28-102.35-76.78-125.47c-2.73-1.39-6,0.31-6.44,3.36c-0.27,1.85-0.5,3.76-0.68,5.67
			C454.96,193.65,455.89,195.38,457.47,196.21z"/>
		<path class="st0" d="M360.22,428.14c0,0,0.31-13.96,17.66-46.65c0,0,7.69-13.81,0-30.53c0,0-4.79-4.11-12.16,1.72
			c-7.37,5.84-23.41,18.17-23.41,18.17s-6.05,3.32-7.5,11.14c0,0-1.77,1.81-8.37,3.95c-6.61,2.14-15.09-3.73-15.09-3.73
			s-2.12-1.41-2.24-10.88c0,0-0.36-2.93-1.76-4.1c0,0-0.35-4.42,0.37-5.45s9.77-12.95,9.77-12.95s8.12-12.66,9.55-19.91
			c1.44-7.24,1.56-11.81,1.56-11.81s1.35-8.04,4.98-11.65c3.63-3.61,7.54-6.54,7.54-6.54s8.75-8.39,9.96-10.78
			c0,0-5.26-7.72-3.63-21.25c0,0,6.04,5.02,10.16,6.98c4.12,1.96,21.68,8.64,21.68,8.64s41.65,15.96,64.52,52.55
			c0,0,9.89,14.08,26.39,21.13c16.5,7.04,18.09,12.81,18.09,12.81s0.04,0.36,0.19,0.94c1.12,4.33,4.7,7.52,9.04,8.42
			c1.63,0.34,3.91,0.98,6.77,2.19c6.35,2.7,12.58-3.39,12.58-3.39s2.37-1.32,6.23-1.38c3.86-0.06,10.44-9.64,10.44-9.64
			s8.41-13.07,1.83-31.59c0,0-4.66-5.71-9.3-16.03c-4.64-10.32-41.91-51.62-41.91-51.62s0.4-15.17-10.71-26.51
			c0,0-11.24-16.41-22.75-32.14c0,0-5.42-12,4.36-45.22c0,0-31.46-0.87-57.55,64.08c0,0,1.6-15.86,8.99-29.27
			c0,0-73,2.19-131.78,103.81C274.77,301.67,256.84,397.29,360.22,428.14z"/>
		<path class="st0" d="M360.22,428.14L360.22,428.14c-49.7-16.75-85.63-64.14-85.63-119.83c0-69.64,56.18-126.3,125.23-126.3
			c4.82,0,9.58,0.28,14.26,0.82c0.86,0.1,1.71-0.22,2.28-0.87c2.08-2.35,4.55-5.05,7.16-7.68c1.54-1.55,0.71-4.21-1.43-4.56
			c-7.26-1.18-14.7-1.8-22.28-1.8c-76.76,0-139.21,62.98-139.21,140.4c0,61.7,39.68,114.24,94.65,133.02
			c1.59,0.54,3.29-0.5,3.51-2.18L360.22,428.14z"/>
	</g>
	<text transform="matrix(1 0 0 1 85.4824 579.749)" font-family="verdana" class="st1 st2 st3 st4">STUDLY</text>
</g>
</svg>
