<svg id="Layer_1" data-name="Layer 1" xmlns="http://www.w3.org/2000/svg" viewBox="0 0 890.38 166.73"><defs><style>.cls-1{fill:#c1a051;}.cls-2{fill:#FFFFFF;}</style></defs><title>studly-logo-long</title><path class="cls-1" d="M179.52,79.61A75.8,75.8,0,0,1,220,144.15a2.68,2.68,0,0,0,.13.75c.2.58.42,1.18.64,1.77.29.74,1.36,2.65,2.6,4.8a2.66,2.66,0,0,0,5-1.21c.05-1.17.07-2.34.07-3.52a84.22,84.22,0,0,0-46-75.13,2.67,2.67,0,0,0-3.86,2c-.16,1.1-.3,2.25-.41,3.39A2.68,2.68,0,0,0,179.52,79.61Z" transform="translate(-61.63 -59.76)"/><path class="cls-1" d="M121.28,218.5s.18-8.35,10.58-27.93a21.33,21.33,0,0,0,0-18.28s-2.87-2.46-7.28,1-14,10.88-14,10.88a10,10,0,0,0-4.49,6.68s-1.06,1.08-5,2.36S92,191,92,191s-1.27-.84-1.35-6.51a4.63,4.63,0,0,0-1-2.46s-.21-2.64.22-3.26S95.69,171,95.69,171s4.86-7.59,5.72-11.93a47.5,47.5,0,0,0,.94-7.07s.81-4.81,3-7a50,50,0,0,1,4.52-3.92s5.24-5,6-6.45c0,0-3.15-4.62-2.18-12.73a38.93,38.93,0,0,0,6.09,4.18c2.47,1.17,13,5.18,13,5.18s24.95,9.56,38.64,31.47a41.23,41.23,0,0,0,15.81,12.65c9.88,4.22,10.83,7.67,10.83,7.67a5.56,5.56,0,0,0,.12.57,7,7,0,0,0,5.41,5,21.43,21.43,0,0,1,4.06,1.31c3.8,1.62,7.53-2,7.53-2a8.5,8.5,0,0,1,3.72-.83c2.32,0,6.26-5.77,6.26-5.77s5-7.83,1.1-18.92a46.9,46.9,0,0,1-5.57-9.6c-2.78-6.19-25.1-30.92-25.1-30.92a23.86,23.86,0,0,0-6.41-15.87s-6.74-9.83-13.63-19.25c0,0-3.24-7.19,2.62-27.08,0,0-18.84-.52-34.46,38.38A52.07,52.07,0,0,1,149,80.61S105.3,81.92,70.1,142.77C70.1,142.77,59.37,200,121.28,218.5Z" transform="translate(-61.63 -59.76)"/><path class="cls-1" d="M121.28,218.5h0A75.71,75.71,0,0,1,70,146.74c0-41.7,33.64-75.63,75-75.63a73.2,73.2,0,0,1,8.54.49,1.59,1.59,0,0,0,1.36-.52c1.25-1.41,2.73-3,4.29-4.6a1.61,1.61,0,0,0-.85-2.73A82.71,82.71,0,0,0,145,62.67c-46,0-83.37,37.71-83.37,84.07a84.16,84.16,0,0,0,56.68,79.66,1.59,1.59,0,0,0,2.1-1.3Z" transform="translate(-61.63 -59.76)"/><path class="cls-2" d="M360.33,186.46a31.68,31.68,0,0,1-13,11.9q-8.66,4.48-21,4.48a54.57,54.57,0,0,1-21.84-4.15,37,37,0,0,1-15.41-12,34.52,34.52,0,0,1-6.6-18.26h24.45a18.72,18.72,0,0,0,5.62,11.66q4.81,4.63,12.8,4.64,7.17,0,11-3.83a13.35,13.35,0,0,0,3.83-9.86,12.91,12.91,0,0,0-3.09-8.88,22.75,22.75,0,0,0-7.83-5.63q-4.72-2.12-13-4.89a128.17,128.17,0,0,1-17.6-7.09,32.45,32.45,0,0,1-11.66-10.19q-4.8-6.67-4.81-17.44,0-14.82,10.68-23.39T321,85q18.25,0,29.1,8.81t12.3,23.47H337.67a17.22,17.22,0,0,0-5.22-10.19q-4.23-4-11.57-4-6.36,0-10.27,3.34t-3.91,9.7a12,12,0,0,0,3,8.39,23,23,0,0,0,7.66,5.46A124.21,124.21,0,0,0,330,134.71,169,169,0,0,1,348,142a31.84,31.84,0,0,1,11.82,10.27q4.89,6.85,4.89,17.93A31.23,31.23,0,0,1,360.33,186.46Z" transform="translate(-61.63 -59.76)"/><path class="cls-2" d="M476.22,86.62v18.26H444.43V201.7h-23V104.88H389.83V86.62Z" transform="translate(-61.63 -59.76)"/><path class="cls-2" d="M527.4,86.62v67.49q0,13.53,6,20.29t17.19,6.76q11.09,0,17-6.76t5.95-20.29V86.62h22.82v67.49q0,16-6,27a38.34,38.34,0,0,1-16.46,16.39,51.76,51.76,0,0,1-23.88,5.37q-20.71,0-33.09-12.38t-12.39-36.35V86.62Z" transform="translate(-61.63 -59.76)"/><path class="cls-2" d="M726.91,174.16a49.9,49.9,0,0,1-20.78,20.29q-13.61,7.26-32.36,7.25H632.86V86.62h40.91q18.75,0,32.36,7.09a49.06,49.06,0,0,1,20.78,20.05q7.17,13,7.17,30.24Q734.08,161.12,726.91,174.16Zm-26.32-2.78q10.18-9.78,10.19-27.38,0-17.76-10.19-27.55t-28.77-9.78h-16v74.49h16Q690.41,181.16,700.59,171.38Z" transform="translate(-61.63 -59.76)"/><path class="cls-2" d="M790.64,184.1h38.64v17.6H767.66V86.62h23Z" transform="translate(-61.63 -59.76)"/><path class="cls-2" d="M952,86.62l-39,74.82V201.7H889.91V161.44L850.79,86.62H877.2L901.65,137,926.1,86.62Z" transform="translate(-61.63 -59.76)"/></svg>