<svg id="Layer_1" data-name="Layer 1" xmlns="http://www.w3.org/2000/svg" viewBox="0 0 278.41 278.41"><title>studly-logo-only</title><path d="M202.47,41.08A126.52,126.52,0,0,1,270,148.85a4.52,4.52,0,0,0,.23,1.26c.33.95.69,2,1.07,2.94.48,1.24,2.26,4.44,4.33,8a4.45,4.45,0,0,0,8.3-2c.08-2,.12-3.9.12-5.87A140.68,140.68,0,0,0,207.25,27.71a4.46,4.46,0,0,0-6.44,3.36c-.27,1.85-.51,3.76-.68,5.67A4.44,4.44,0,0,0,202.47,41.08Z" transform="translate(-5.62 -7.93)"/><path d="M105.22,273s.31-14,17.67-46.65a35.61,35.61,0,0,0,0-30.52s-4.79-4.12-12.16,1.72-23.41,18.17-23.41,18.17a16.66,16.66,0,0,0-7.5,11.14s-1.77,1.82-8.37,4-15.09-3.73-15.09-3.73-2.12-1.41-2.25-10.88c0,0-.36-2.93-1.75-4.1,0,0-.36-4.42.37-5.44s9.77-13,9.77-13,8.12-12.67,9.55-19.91A78.75,78.75,0,0,0,73.62,162s1.35-8,5-11.65a80.62,80.62,0,0,1,7.54-6.53s8.75-8.39,10-10.78c0,0-5.26-7.72-3.63-21.25,0,0,6,5,10.16,7s21.69,8.64,21.69,8.64,41.64,16,64.52,52.55c0,0,9.89,14.08,26.39,21.13s18.09,12.81,18.09,12.81a7.88,7.88,0,0,0,.19.94,11.69,11.69,0,0,0,9.05,8.42,35.25,35.25,0,0,1,6.76,2.19c6.35,2.7,12.58-3.39,12.58-3.39a14.17,14.17,0,0,1,6.22-1.38c3.86-.07,10.45-9.64,10.45-9.64S287,198,280.4,179.45a78.19,78.19,0,0,1-9.3-16c-4.64-10.33-41.91-51.62-41.91-51.62s.4-15.17-10.71-26.51c0,0-11.24-16.4-22.74-32.14,0,0-5.43-12,4.36-45.22,0,0-31.46-.87-57.55,64.08,0,0,1.6-15.86,9-29.27,0,0-73,2.19-131.77,103.81C19.77,146.55,1.84,242.16,105.22,273Z" transform="translate(-5.62 -7.93)"/><path d="M105.22,273h0A126.44,126.44,0,0,1,19.59,153.18c0-69.64,56.18-126.3,125.24-126.3a126.71,126.71,0,0,1,14.26.81,2.63,2.63,0,0,0,2.28-.86c2.07-2.36,4.55-5.06,7.16-7.69a2.68,2.68,0,0,0-1.43-4.55,137.43,137.43,0,0,0-22.27-1.81c-76.76,0-139.21,63-139.21,140.4a140.56,140.56,0,0,0,94.65,133,2.67,2.67,0,0,0,3.51-2.19Z" transform="translate(-5.62 -7.93)"/></svg>